<svg width="744" height="728" viewBox="0 0 744 728" fill="none" xmlns="http://www.w3.org/2000/svg">
<path d="M1.38008 499.909C1.30407 499.909 1.22805 499.909 1.15203 499.833C1.07602 499.757 1 499.605 1 499.453L35.7397 192.269C35.7397 192.117 35.8917 191.965 36.1197 191.965L315.481 171.593C315.633 171.593 315.709 171.669 315.785 171.745C315.861 171.821 315.861 171.973 315.861 172.125L236.804 374.482C236.804 374.558 236.728 374.634 236.652 374.71L1.53212 499.833C1.53212 499.909 1.4561 499.909 1.38008 499.909ZM36.4238 192.726L1.83618 498.845L236.044 374.102L314.873 172.429L36.4238 192.726Z" stroke="url(#paint0_linear_7094_4770)"/>
<path d="M36.1208 192.727C35.9688 192.727 35.8168 192.651 35.7408 192.499C35.6647 192.347 35.7408 192.195 35.8928 192.043L288.344 1.08871C288.42 1.0127 288.573 1.0127 288.725 1.0127C288.877 1.08871 288.953 1.16473 288.953 1.31676L315.787 171.898C315.787 171.974 315.787 172.126 315.711 172.202C315.635 172.278 315.558 172.355 315.406 172.355L36.1208 192.727ZM288.268 2.07693L37.3371 191.891L314.95 171.594L288.268 2.07693Z" stroke="url(#paint1_linear_7094_4770)"/>
<path d="M405.187 522.334C405.111 522.334 405.035 522.334 404.959 522.258L236.126 374.633C235.974 374.557 235.974 374.329 236.05 374.177L315.107 171.745C315.183 171.593 315.259 171.517 315.335 171.517C315.487 171.517 315.563 171.517 315.716 171.593L542.474 362.091C542.55 362.167 542.626 362.243 542.626 362.319C542.626 362.395 542.626 362.547 542.55 362.623L405.415 522.258C405.339 522.334 405.263 522.334 405.187 522.334ZM236.81 374.253L405.111 521.422L541.713 362.395L315.563 172.581L236.81 374.253Z" stroke="url(#paint2_linear_7094_4770)"/>
<path d="M542.236 362.777C542.16 362.777 542.084 362.777 542.008 362.701L315.173 172.278C315.097 172.202 315.021 172.126 315.021 172.05L288.188 1.4688C288.188 1.31676 288.188 1.24075 288.264 1.16473C288.416 1.0127 288.492 1.0127 288.644 1.0127L562.076 52.248C562.304 52.248 562.38 52.4761 562.38 52.6281L542.616 362.396C542.616 362.548 542.54 362.701 542.388 362.701C542.312 362.777 542.312 362.777 542.236 362.777ZM315.782 171.746L541.932 361.636L561.62 53.0082L289.024 1.84888L315.782 171.746Z" stroke="url(#paint3_linear_7094_4770)"/>
<path d="M278.613 726.744C278.537 726.744 278.461 726.744 278.385 726.668L1.15203 499.834C1.07602 499.758 1 499.606 1 499.454C1 499.302 1.07602 499.226 1.22805 499.15L236.196 373.951C236.272 373.875 236.424 373.875 236.576 373.951C236.652 374.027 236.728 374.103 236.804 374.255L279.069 726.288C279.069 726.44 278.993 726.592 278.841 726.668C278.765 726.744 278.689 726.744 278.613 726.744ZM2.06423 499.606L278.157 725.528L236.044 375.015L2.06423 499.606Z" stroke="url(#paint4_linear_7094_4770)"/>
<path d="M278.614 726.743C278.538 726.743 278.462 726.743 278.386 726.667C278.31 726.591 278.234 726.515 278.234 726.439L235.969 374.406C235.969 374.254 236.045 374.102 236.197 374.026C236.349 373.949 236.501 373.95 236.653 374.102L405.41 521.726L559.572 690.483C559.648 690.559 559.724 690.711 559.648 690.863C559.572 691.015 559.496 691.091 559.344 691.091L278.614 726.743ZM236.881 375.318L278.994 725.983L558.584 690.483L404.878 522.258L236.881 375.318Z" stroke="url(#paint5_linear_7094_4770)"/>
<path d="M542.239 362.775C542.163 362.775 542.087 362.775 542.011 362.699C541.935 362.623 541.859 362.471 541.859 362.395L561.624 52.6269C561.624 52.4748 561.776 52.3228 561.928 52.3228C562.08 52.2468 562.232 52.3228 562.308 52.4748L742.848 289.875C742.924 289.951 742.924 290.103 742.924 290.179C742.924 290.331 742.772 290.407 742.696 290.407L542.315 362.623C542.315 362.775 542.239 362.775 542.239 362.775ZM562.308 53.6911L542.62 361.863L741.936 289.951L562.308 53.6911Z" stroke="url(#paint6_linear_7094_4770)"/>
<path d="M559.269 691.168C559.193 691.168 559.041 691.092 558.965 691.016L404.803 522.259C404.727 522.107 404.651 521.955 404.727 521.803C404.803 521.651 404.955 521.575 405.107 521.651L703.625 586.949C703.777 586.949 703.853 587.101 703.929 587.253C703.929 587.405 703.929 587.557 703.777 587.633L559.497 691.092C559.497 691.092 559.345 691.168 559.269 691.168ZM406.247 522.639L559.345 690.256L702.713 587.481L406.247 522.639Z" stroke="url(#paint7_linear_7094_4770)"/>
<path d="M703.617 587.708H703.541L405.023 522.41C404.871 522.41 404.795 522.258 404.719 522.182C404.719 522.03 404.719 521.954 404.795 521.802L541.853 362.242C541.929 362.166 541.929 362.166 542.005 362.166L742.385 289.95C742.461 289.874 742.613 289.95 742.765 290.026C742.841 290.102 742.917 290.255 742.917 290.407L703.997 587.556C703.997 587.632 703.921 587.784 703.845 587.784C703.769 587.632 703.693 587.708 703.617 587.708ZM405.859 521.726L703.313 586.796L742.081 290.635L542.385 362.622L405.859 521.726Z" stroke="url(#paint8_linear_7094_4770)"/>
<path d="M135.93 521.802C135.854 521.802 135.854 521.802 135.93 521.802L1.30407 499.909C1.15203 499.833 1 499.681 1 499.453L35.7397 192.27C35.7397 192.117 35.8157 192.041 35.9677 191.965C36.0437 191.889 36.1958 191.889 36.2718 191.965L136.082 237.271C136.234 237.347 136.31 237.499 136.31 237.652V521.498C136.31 521.574 136.234 521.726 136.158 521.802C136.082 521.802 136.006 521.802 135.93 521.802ZM1.76017 499.225L135.55 520.966V237.88L36.4238 192.878L1.76017 499.225Z" stroke="url(#paint9_linear_7094_4770)"/>
<path d="M135.924 238.032C135.848 238.032 135.848 238.032 135.772 238.032L35.9624 192.65C35.8104 192.574 35.7344 192.498 35.7344 192.346C35.7344 192.194 35.8104 192.118 35.8864 191.966L288.338 1.08778C288.49 0.935743 288.718 1.01176 288.794 1.08778C288.946 1.23981 288.946 1.39184 288.87 1.54388L136.229 237.804C136.153 237.956 136 238.032 135.924 238.032ZM36.7986 192.27L135.696 237.196L287.046 3.06421L36.7986 192.27Z" stroke="url(#paint10_linear_7094_4770)"/>
<path d="M607.611 521.803H135.927C135.699 521.803 135.547 521.651 135.547 521.423V237.653C135.547 237.424 135.699 237.272 135.927 237.272H607.611C607.839 237.272 607.991 237.424 607.991 237.653V521.499C607.991 521.651 607.839 521.803 607.611 521.803ZM136.307 521.043H607.231V238.033H136.307V521.043Z" stroke="url(#paint11_linear_7094_4770)"/>
<path d="M607.623 238.033H135.939C135.787 238.033 135.635 237.957 135.635 237.805C135.559 237.653 135.559 237.501 135.635 237.425L288.277 1.16473C288.353 1.08871 288.505 1.0127 288.657 1.0127L562.089 52.248C562.241 52.248 562.393 52.4 562.393 52.5521L608.003 237.425C608.003 237.501 608.079 237.577 608.079 237.653C608.003 237.805 607.851 238.033 607.623 238.033ZM136.623 237.273H607.167L561.709 53.0082L288.809 1.84888L136.623 237.273Z" stroke="url(#paint12_linear_7094_4770)"/>
<path d="M278.613 726.744C278.537 726.744 278.461 726.744 278.385 726.668L1.15203 499.834C1 499.682 1 499.53 1 499.378C1.07602 499.226 1.22805 499.15 1.38008 499.15L135.93 521.042C136.006 521.042 136.158 521.118 136.158 521.194L278.841 726.136C278.917 726.288 278.917 726.516 278.765 726.668C278.841 726.744 278.689 726.744 278.613 726.744ZM2.74839 500.138L276.789 724.387L135.702 521.803L2.74839 500.138Z" stroke="url(#paint13_linear_7094_4770)"/>
<path d="M278.623 726.744C278.471 726.744 278.395 726.668 278.319 726.592L135.635 521.651C135.559 521.499 135.559 521.347 135.635 521.271C135.711 521.119 135.863 521.043 135.939 521.043H607.623C607.775 521.043 607.851 521.119 607.927 521.195C608.003 521.271 608.003 521.423 608.003 521.499L559.733 690.788C559.733 690.94 559.581 691.016 559.429 691.092L278.623 726.744ZM136.623 521.803L278.775 725.984L558.973 690.408L607.091 521.803H136.623V521.803Z" stroke="url(#paint14_linear_7094_4770)"/>
<path d="M742.54 290.484C742.464 290.484 742.464 290.484 742.388 290.484L607.382 237.956C607.306 237.88 607.154 237.804 607.154 237.728L561.544 52.7796C561.468 52.6275 561.62 52.3995 561.772 52.3235C561.924 52.2475 562.152 52.3235 562.228 52.3995L742.844 289.876C742.92 289.952 742.996 290.028 742.996 290.18C742.996 290.332 742.768 290.484 742.54 290.484ZM742.54 290.484C742.616 290.484 742.616 290.484 742.54 290.484ZM607.914 237.348L741.475 289.268L562.76 54.3759L607.914 237.348Z" stroke="url(#paint15_linear_7094_4770)"/>
<path d="M559.269 691.167C559.193 691.167 559.117 691.167 559.041 691.091C558.889 691.015 558.813 690.863 558.889 690.711L607.16 521.421C607.16 521.269 607.312 521.193 607.388 521.193C607.464 521.193 607.616 521.193 607.692 521.269L703.701 587.176C703.777 587.252 703.853 587.328 703.853 587.48C703.853 587.632 703.777 587.708 703.701 587.784L559.497 691.091C559.497 691.091 559.345 691.167 559.269 691.167ZM607.844 522.03L560.029 689.799L703.017 587.328L607.844 522.03Z" stroke="url(#paint16_linear_7094_4770)"/>
<path d="M703.624 587.709C703.548 587.709 703.472 587.709 703.396 587.633L607.386 521.727C607.31 521.651 607.234 521.575 607.234 521.423V237.652C607.234 237.5 607.31 237.424 607.386 237.348C607.462 237.272 607.614 237.272 607.766 237.348L742.772 289.876C742.924 289.952 743 290.104 743 290.256L704.08 587.405C704.08 587.557 704.004 587.633 703.852 587.709C703.776 587.709 703.7 587.709 703.624 587.709ZM607.995 521.271L703.396 586.721L742.24 290.484L607.995 238.184V521.271Z" stroke="url(#paint17_linear_7094_4770)"/>
<defs>
<linearGradient id="paint0_linear_7094_4770" x1="-34.6584" y1="107.662" x2="237.129" y2="85.5976" gradientUnits="userSpaceOnUse">
<stop offset="0.0873672" stop-color="#FF3737"/>
<stop offset="1" stop-color="#E01EB6"/>
</linearGradient>
<linearGradient id="paint1_linear_7094_4770" x1="3.99203" y1="-36.3187" x2="243.68" y2="-65.9601" gradientUnits="userSpaceOnUse">
<stop offset="0.0873672" stop-color="#FF3737"/>
<stop offset="1" stop-color="#E01EB6"/>
</linearGradient>
<linearGradient id="paint2_linear_7094_4770" x1="201.274" y1="103.204" x2="466.246" y2="83.5994" gradientUnits="userSpaceOnUse">
<stop offset="0.0873672" stop-color="#FF3737"/>
<stop offset="1" stop-color="#E01EB6"/>
</linearGradient>
<linearGradient id="paint3_linear_7094_4770" x1="257.135" y1="-69.4314" x2="494.4" y2="-84.6543" gradientUnits="userSpaceOnUse">
<stop offset="0.0873672" stop-color="#FF3737"/>
<stop offset="1" stop-color="#E01EB6"/>
</linearGradient>
<linearGradient id="paint4_linear_7094_4770" x1="-30.4917" y1="305.185" x2="210.048" y2="289.138" gradientUnits="userSpaceOnUse">
<stop offset="0.0873672" stop-color="#FF3737"/>
<stop offset="1" stop-color="#E01EB6"/>
</linearGradient>
<linearGradient id="paint5_linear_7094_4770" x1="199.308" y1="305.283" x2="478.889" y2="283.566" gradientUnits="userSpaceOnUse">
<stop offset="0.0873672" stop-color="#FF3737"/>
<stop offset="1" stop-color="#E01EB6"/>
</linearGradient>
<linearGradient id="paint6_linear_7094_4770" x1="519.089" y1="-8.16542" x2="693.267" y2="-17.7137" gradientUnits="userSpaceOnUse">
<stop offset="0.0873672" stop-color="#FF3737"/>
<stop offset="1" stop-color="#E01EB6"/>
</linearGradient>
<linearGradient id="paint7_linear_7094_4770" x1="370.807" y1="488.606" x2="625.13" y2="450.61" gradientUnits="userSpaceOnUse">
<stop offset="0.0873672" stop-color="#FF3737"/>
<stop offset="1" stop-color="#E01EB6"/>
</linearGradient>
<linearGradient id="paint8_linear_7094_4770" x1="366.417" y1="231.917" x2="657.583" y2="203.932" gradientUnits="userSpaceOnUse">
<stop offset="0.0873672" stop-color="#FF3737"/>
<stop offset="1" stop-color="#E01EB6"/>
</linearGradient>
<linearGradient id="paint9_linear_7094_4770" x1="-14.324" y1="127.67" x2="103.103" y2="123.593" gradientUnits="userSpaceOnUse">
<stop offset="0.0873672" stop-color="#FF3737"/>
<stop offset="1" stop-color="#E01EB6"/>
</linearGradient>
<linearGradient id="paint10_linear_7094_4770" x1="7.06077" y1="-45.1559" x2="225.266" y2="-64.886" gradientUnits="userSpaceOnUse">
<stop offset="0.0873672" stop-color="#FF3737"/>
<stop offset="1" stop-color="#E01EB6"/>
</linearGradient>
<linearGradient id="paint11_linear_7094_4770" x1="82.042" y1="181.867" x2="484.589" y2="125.287" gradientUnits="userSpaceOnUse">
<stop offset="0.0873672" stop-color="#FF3737"/>
<stop offset="1" stop-color="#E01EB6"/>
</linearGradient>
<linearGradient id="paint12_linear_7094_4770" x1="82.0668" y1="-45.1409" x2="481.248" y2="-112.504" gradientUnits="userSpaceOnUse">
<stop offset="0.0873672" stop-color="#FF3737"/>
<stop offset="1" stop-color="#E01EB6"/>
</linearGradient>
<linearGradient id="paint13_linear_7094_4770" x1="-30.4715" y1="454.831" x2="208.432" y2="430.139" gradientUnits="userSpaceOnUse">
<stop offset="0.0873672" stop-color="#FF3737"/>
<stop offset="1" stop-color="#E01EB6"/>
</linearGradient>
<linearGradient id="paint14_linear_7094_4770" x1="82.0754" y1="480.988" x2="477.609" y2="404.091" gradientUnits="userSpaceOnUse">
<stop offset="0.0873672" stop-color="#FF3737"/>
<stop offset="1" stop-color="#E01EB6"/>
</linearGradient>
<linearGradient id="paint15_linear_7094_4770" x1="540.971" y1="5.91025" x2="697.997" y2="-4.21684" gradientUnits="userSpaceOnUse">
<stop offset="0.0873672" stop-color="#FF3737"/>
<stop offset="1" stop-color="#E01EB6"/>
</linearGradient>
<linearGradient id="paint16_linear_7094_4770" x1="542.439" y1="488.095" x2="667.768" y2="479.045" gradientUnits="userSpaceOnUse">
<stop offset="0.0873672" stop-color="#FF3737"/>
<stop offset="1" stop-color="#E01EB6"/>
</linearGradient>
<linearGradient id="paint17_linear_7094_4770" x1="591.859" y1="169.056" x2="709.697" y2="165.191" gradientUnits="userSpaceOnUse">
<stop offset="0.0873672" stop-color="#FF3737"/>
<stop offset="1" stop-color="#E01EB6"/>
</linearGradient>
</defs>
</svg>
